<?xml version="1.0" encoding="UTF-8" standalone="no"?>
<!-- Created with Inkscape (http://www.inkscape.org/) -->

<svg
   xmlns:dc="http://purl.org/dc/elements/1.1/"
   xmlns:cc="http://creativecommons.org/ns#"
   xmlns:rdf="http://www.w3.org/1999/02/22-rdf-syntax-ns#"
   xmlns:svg="http://www.w3.org/2000/svg"
   xmlns="http://www.w3.org/2000/svg"
   xmlns:sodipodi="http://sodipodi.sourceforge.net/DTD/sodipodi-0.dtd"
   xmlns:inkscape="http://www.inkscape.org/namespaces/inkscape"
   width="265mm"
   height="297mm"
   viewBox="0 0 938.97638 1052.3622"
   id="svg2"
   version="1.1"
   inkscape:version="0.91 r13725"
   inkscape:export-filename="/home/kenma/NetBeansProjects/AntsTrip/src/antstrip/view/antHill.png"
   inkscape:export-xdpi="25.4"
   inkscape:export-ydpi="25.4"
   sodipodi:docname="antHillsvg.svg">
  <defs
     id="defs4">
    <filter
       style="color-interpolation-filters:sRGB;"
       inkscape:label="Drop Shadow"
       id="filter4326">
      <feFlood
         flood-opacity="0.498039"
         flood-color="rgb(0,0,0)"
         result="flood"
         id="feFlood4328" />
      <feComposite
         in="flood"
         in2="SourceGraphic"
         operator="in"
         result="composite1"
         id="feComposite4330" />
      <feGaussianBlur
         in="composite1"
         stdDeviation="3"
         result="blur"
         id="feGaussianBlur4332" />
      <feOffset
         dx="6"
         dy="6"
         result="offset"
         id="feOffset4334" />
      <feComposite
         in="SourceGraphic"
         in2="offset"
         operator="over"
         result="composite2"
         id="feComposite4336" />
    </filter>
  </defs>
  <sodipodi:namedview
     id="base"
     pagecolor="#ffffff"
     bordercolor="#666666"
     borderopacity="1.0"
     inkscape:pageopacity="0.0"
     inkscape:pageshadow="2"
     inkscape:zoom="0.35"
     inkscape:cx="0.71428571"
     inkscape:cy="634.28571"
     inkscape:document-units="px"
     inkscape:current-layer="layer1"
     showgrid="false"
     inkscape:window-width="1366"
     inkscape:window-height="705"
     inkscape:window-x="0"
     inkscape:window-y="30"
     inkscape:window-maximized="1" />
  <metadata
     id="metadata7">
    <rdf:RDF>
      <cc:Work
         rdf:about="">
        <dc:format>image/svg+xml</dc:format>
        <dc:type
           rdf:resource="http://purl.org/dc/dcmitype/StillImage" />
        <dc:title></dc:title>
      </cc:Work>
    </rdf:RDF>
  </metadata>
  <g
     inkscape:label="Capa 1"
     inkscape:groupmode="layer"
     id="layer1">
    <path
       inkscape:connector-curvature="0"
       id="path4352"
       d="m 517.09851,883.44249 c -18.50151,-5.23978 -36.66899,-17.72826 -38.93726,-26.76578 -2.89628,-11.53969 0.17864,-36.50566 5.99549,-48.67908 2.90583,-6.08123 9.8987,-14.57766 15.53972,-18.88095 10.03772,-7.65733 11.22103,-7.83531 55.50787,-8.34846 42.38667,-0.49117 46.18075,-0.0816 59.92939,6.46943 24.1334,11.49922 32.912,35.23874 24.38495,65.94312 -3.54343,12.75922 -10.01129,16.76782 -40.88815,25.34114 -28.01779,7.77948 -63.81003,9.9396 -81.53201,4.92058 z M 296.90824,797.73121 c -28.44738,-7.99971 -47.49117,-18.96475 -61.22483,-35.25207 -8.87477,-10.52494 -14.40307,-14.60912 -19.83701,-14.65513 -11.64672,-0.0988 -31.19637,-10.19151 -37.05246,-19.12902 -2.90482,-4.43331 -5.94779,-14.67321 -6.76216,-22.75533 l -1.48068,-14.69472 -24.69047,-1.81086 c -27.00884,-1.98088 -41.91544,-6.33346 -61.998623,-18.103 -17.93653,-10.51149 -25.90651,-22.55199 -27.47893,-41.51326 -3.16142,-38.12256 36.62687,-78.92424 92.923343,-95.29008 l 16.21349,-4.71338 3.25507,-21.88553 c 5.92338,-39.826 25.08829,-69.00098 59.67553,-90.8448 10.23307,-6.46277 19.40138,-13.03812 20.37402,-14.61188 0.97264,-1.57377 -1.02089,-11.09728 -4.43008,-21.16336 -15.46303,-45.65673 3.40338,-92.99172 45.14727,-113.27246 10.15208,-4.93227 13.73376,-8.77082 17.57919,-18.83993 6.8986,-18.06372 30.5364,-42.69096 50.21843,-52.32047 14.67538,-7.18 19.09768,-7.9688 39.76642,-7.0931 59.47035,2.51967 65.46136,1.9621 88.56537,-8.24264 39.9607,-17.6501 90.25168,-20.44174 114.25916,-6.34248 10.98284,6.45007 19.02767,20.11523 21.20836,36.02515 l 1.79407,13.08915 15.84492,1.86226 c 21.78359,2.56023 35.06466,8.65796 49.37845,22.6711 16.01024,15.67395 24.66329,36.20066 26.41262,62.65592 1.80909,27.35825 -3.32394,50.81681 -17.13472,78.30801 -6.08812,12.11879 -10.49673,22.96061 -9.79695,24.09293 0.69982,1.13232 6.51062,2.76136 12.91289,3.62008 39.87468,5.34832 76.16114,44.39213 84.89265,91.34354 3.15065,16.94174 1.85329,30.87812 -5.14759,55.29575 -1.77019,6.1741 -1.04644,6.53571 13.08035,6.53571 8.22483,0 22.85873,2.66283 32.51979,5.91741 92.81049,31.26558 66.67056,103.66587 -39.53453,109.49962 -28.09236,1.5431 -29.41803,1.92714 -40.31112,11.67845 -22.30846,19.97021 -53.80889,28.18078 -76.58042,19.96065 -11.22699,-4.05275 -13.28879,-4.01519 -23.23809,0.42346 -17.36374,7.74645 -72.76733,6.78338 -93.70369,-1.62884 -19.50461,-7.83696 -19.80743,-7.83185 -29.99777,0.50571 l -8.21208,6.71895 6.02265,9.87895 c 11.32462,18.5759 6.82299,31.97768 -13.81122,41.11734 -11.08953,4.91196 -21.45901,6.25396 -57.12063,7.39245 -42.1297,1.34496 -44.0996,1.68845 -59.53352,10.38069 -14.48977,8.16049 -18.64277,9.05928 -45.02381,9.74417 -21.22001,0.55086 -34.15633,-0.67824 -47.94266,-4.55511 z"
       style="fill:#dd873a" />
    <path
       inkscape:connector-curvature="0"
       id="path4344"
       d="m 526.53146,880.96932 c -8.83126,-1.90265 -22.12414,-7.01506 -29.5398,-11.3609 -16.09711,-9.43353 -18.85957,-17.69134 -13.9039,-41.56264 6.55456,-31.57314 31.93152,-49.10358 61.30453,-42.34922 7.38269,1.69766 22.52849,2.32328 33.6573,1.39027 24.18656,-2.02769 37.3494,1.66304 48.88938,13.70816 6.9678,7.27282 8.51484,11.66314 9.44445,26.80191 1.53253,24.95778 -2.17511,32.99043 -18.4468,39.96529 -11.62506,4.98309 -66.15215,17.78083 -72.89988,17.10992 -1.34667,-0.13391 -9.67405,-1.80014 -18.50528,-3.70279 z m 70.77688,-33.40833 c 21.72393,-5.74118 25.04976,-8.77607 25.1164,-22.91924 0.0555,-11.77434 -7.43898,-19.58728 -23.36623,-24.35919 -10.38118,-3.11028 -14.15685,-2.91084 -26.25788,1.38708 -12.8405,4.56056 -14.92197,4.61189 -22.7548,0.5614 -14.94067,-7.72614 -28.45699,-5.82559 -39.89185,5.60927 -8.05493,8.05494 -9.88418,11.94845 -9.15,19.47565 0.78893,8.08871 3.10272,10.54669 16.49931,17.52762 13.15154,6.85323 19.04097,8.10768 37.7619,8.04317 12.19913,-0.0421 31.11854,-2.43861 42.04315,-5.32576 z m -277.31335,-49.9118 c -21.96146,-3.3376 -50.92719,-13.20685 -64.22715,-21.88355 -5.97743,-3.89959 -14.25704,-12.21127 -18.39912,-18.47036 -6.11242,-9.23651 -9.81054,-11.75883 -19.63195,-13.39012 -27.89773,-4.6337 -39.53606,-15.86822 -39.63152,-38.25647 -0.0794,-18.61752 -3.69996,-21.16171 -30.11483,-21.16171 -21.9426,0 -50.119059,-8.00927 -65.378579,-18.58411 -23.41311,-16.22531 -28.27192,-40.90228 -13.42469,-68.18154 14.18297,-26.05879 39.700049,-44.43318 79.560739,-57.29024 l 23.48324,-7.57451 0,-10.71738 c 0,-15.57138 7.88572,-43.41298 16.42304,-57.98373 10.21792,-17.43908 26.92207,-33.4708 46.22624,-44.3654 20.25933,-11.43366 24.02134,-18.45903 17.07633,-31.8892 -6.54243,-12.65168 -8.79517,-44.48874 -4.4263,-62.55523 5.06559,-20.94761 19.46551,-38.77597 40.27972,-49.86983 15.36987,-8.19206 18.61263,-11.45555 24.78984,-24.94834 13.62449,-29.75981 41.45868,-52.00023 69.96979,-55.90811 7.38779,-1.01261 23.17209,-0.17507 35.07621,1.8612 26.20432,4.48239 47.63269,1.13383 74.71966,-11.67628 9.83067,-4.64918 23.51849,-9.2995 30.41732,-10.33405 6.89887,-1.03454 12.54338,-3.03971 12.54338,-4.45593 0,-1.41622 8.82321,-2.46866 19.60714,-2.33876 15.43242,0.18589 22.65714,1.88671 33.93183,7.98809 18.56157,10.04474 25.83451,20.30118 27.72505,39.09828 l 1.52169,15.12982 19.1693,1.89618 c 40.57607,4.01367 64.21037,27.39438 72.19356,71.41894 5.10212,28.13663 -1.94367,60.36193 -20.31492,92.91397 -11.69532,20.723 -11.23286,22.98259 5.20205,25.41669 33.19399,4.9162 63.1431,28.45074 78.27982,61.51364 9.83514,21.48284 12.14315,50.43402 5.61235,70.40077 -2.60558,7.96611 -4.73741,15.74378 -4.73741,17.28374 0,1.53996 8.16964,3.66985 18.15476,4.73305 37.87717,4.03312 72.31771,20.46538 81.9553,39.10245 7.93133,15.33749 5.8501,25.72983 -7.88387,39.36714 -17.64425,17.52007 -39.34634,24.96018 -79.49302,27.25253 -31.70318,1.81022 -32.45104,2.01556 -41.10703,11.28544 -18.80938,20.14345 -55.32287,29.53292 -77.64994,19.96777 -7.445,-3.18952 -10.92499,-2.95888 -23.89173,1.58338 -21.45428,7.51549 -63.51996,7.1567 -85.03684,-0.72532 -8.7869,-3.21879 -18.09431,-6.55215 -20.68315,-7.40743 -5.97786,-1.97495 -28.44099,13.37498 -28.58756,19.53496 -0.0607,2.54823 2.56746,7.05642 5.84019,10.0182 8.39102,7.59378 6.70367,23.58937 -3.27047,31.00294 -11.30577,8.40333 -26.51937,10.84312 -68.08901,10.91929 -34.83042,0.0639 -38.61181,0.60814 -47.92857,6.89915 -18.9201,12.77552 -47.10913,17.74801 -75.85089,13.37998 z m 43.42164,-37.76839 c 6.89846,-1.59102 16.18565,-5.58614 20.63824,-8.87808 7.99487,-5.91087 8.50433,-5.92519 40.94506,-1.15058 42.70049,6.28466 71.09248,7.00582 76.04745,1.93164 3.11707,-3.19204 2.12547,-5.26418 -5.6615,-11.83057 -6.10987,-5.15221 -9.44047,-10.57883 -9.44047,-15.38162 0,-9.45599 -5.65061,-14.06195 -22.49977,-18.34011 -13.30209,-3.37754 -13.49866,-3.60359 -16.62334,-19.11694 -6.72833,-33.40438 -30.15169,-65.81316 -57.36881,-79.37605 -34.40066,-17.14257 -73.49076,-4.01455 -91.01415,30.5662 -6.38834,12.60679 -8.28208,14.23177 -16.60238,14.24612 -16.34472,0.029 -32.11408,6.09204 -41.23277,15.85541 -5.9109,6.32878 -12.56028,10.02674 -20.13483,11.19765 -14.21558,2.19754 -25.00013,11.9967 -25.00013,22.71582 0,12.38698 8.53503,15.37526 42.47082,14.8698 l 29.3994,-0.43787 -1.38676,12.30336 c -0.98903,8.77464 -0.12357,13.35168 3.01752,15.95858 3.24446,2.69266 55.58367,14.11593 80.45139,17.55888 0.79881,0.11067 7.09657,-1.10064 13.99503,-2.69164 z m 345.08744,-91.72814 c 5.46519,-2.59337 12.78903,-8.8023 16.27523,-13.79762 3.48621,-4.99529 7.41473,-9.83334 8.73003,-10.75125 1.31531,-0.91787 11.18188,0.18184 21.92567,2.44358 32.41162,6.82348 83.0817,-0.036 99.70629,-13.49777 6.27603,-5.08202 6.40291,-5.82765 2.10718,-12.38375 -5.9089,-9.0181 -30.03155,-22.10716 -44.68259,-24.24492 -9.09115,-1.32654 -13.85057,-0.16615 -23.07287,5.62496 -25.26713,15.86659 -30.14321,17.12575 -51.52344,13.30488 -10.77693,-1.92594 -24.834,-2.61652 -31.23787,-1.53458 -6.4039,1.08193 -11.64345,1.35832 -11.64345,0.61418 0,-0.74411 1.96072,-6.04559 4.35715,-11.78107 5.59523,-13.39128 5.51297,-23.19189 -0.28874,-34.41138 -4.61625,-8.92686 -4.6023,-8.97029 2.17857,-6.78791 16.95902,5.45819 27.12627,4.99279 35.5418,-1.62687 10.21811,-8.03756 19.06209,-26.75242 19.14755,-40.51829 0.0351,-5.65255 -2.87729,-16.10969 -6.47193,-23.23809 -7.54477,-14.96177 -25.6265,-25.55857 -57.25916,-33.55671 -18.50867,-4.67984 -57.70248,-4.56812 -75.63369,0.21553 -3.99405,1.06552 -0.72619,-1.75584 7.26191,-6.26973 9.37593,-5.29811 14.84246,-10.44455 15.4228,-14.51976 1.70791,-11.99286 -14.62257,-36.88512 -31.30017,-47.71028 l -7.15167,-4.64204 16.05886,-6.00839 c 8.83236,-3.30461 22.83871,-10.00594 31.12525,-14.89185 12.56811,-7.41043 16.3285,-8.4036 22.67802,-5.98952 5.08409,1.93297 8.78508,1.9201 11.14534,-0.0388 9.95096,-8.25855 14.1581,-51.84771 7.23463,-74.95619 -4.84174,-16.1603 -20.57463,-34.23968 -33.51105,-38.50908 -5.67799,-1.87391 -20.36232,-2.94869 -32.63186,-2.38843 l -22.30836,1.01878 0.9904,-20.75682 c 1.13722,-23.83423 -1.65208,-30.91685 -14.87412,-37.76872 -18.64994,-9.66466 -65.91061,-4.26622 -95.70083,10.93162 -6.04862,3.08577 -20.92318,7.66317 -33.05457,10.172 -17.88755,3.69922 -24.59784,3.92173 -35.49784,1.17708 -20.94234,-5.27334 -41.52854,-4.19728 -56.77093,2.96748 -17.68639,8.31359 -38.50996,31.62145 -43.48042,48.66769 -3.58619,12.2989 -5.38051,14.08015 -23.89506,23.72113 -33.86668,17.6352 -42.12694,40.10578 -24.79153,67.4409 12.31956,19.42593 34.84603,29.93833 64.19396,29.95734 11.98214,0.008 26.68749,-1.02548 32.67857,-2.29609 14.28285,-3.02916 14.04237,1.15756 -0.66418,11.56229 -6.35637,4.49706 -11.58494,9.93661 -11.61905,12.08789 -0.034,2.15127 5.06106,9.73152 11.32259,16.845 6.26154,7.11348 12.73337,16.80265 14.38185,21.53149 2.71331,7.78343 2.50652,8.33526 -2.18304,5.82549 -2.84914,-1.52482 -6.94601,-4.90002 -9.10419,-7.50044 -6.13184,-7.38843 -24.84271,-15.88761 -41.9307,-19.0465 -43.71853,-8.08181 -114.06509,21.6064 -131.29403,55.40974 -10.35155,20.30987 -9.13878,32.61903 4.51981,45.87424 13.4091,13.0131 35.15446,24.18795 61.27332,31.48814 14.87189,4.15666 28.28682,5.19035 63.17857,4.86818 28.03301,-0.25881 44.29762,0.66356 44.29762,2.51221 0,1.60668 -2.94107,5.30575 -6.53572,8.22016 -3.59464,2.91438 -5.75323,6.08498 -4.79683,7.04576 0.95639,0.96075 9.35496,3.73059 18.6635,6.15516 30.75477,8.01058 53.00812,23.36559 76.95097,53.09673 9.59681,11.91687 11.32602,12.77804 33.2766,16.57172 20.08085,3.47052 23.77356,3.44069 27.82396,-0.22483 6.32079,-5.72026 13.92125,-5.31475 27.19133,1.45073 25.68036,13.0926 62.37796,14.76659 95.37123,4.35046 16.56551,-5.22982 16.72937,-5.22355 23.23958,0.89249 13.31752,12.51113 28.77178,15.142 44.65975,7.60266 z M 502.69656,548.59199 c -16.31768,-8.43098 -22.81528,-10.15661 -39.21429,-10.41444 -10.81077,-0.16993 -25.76547,1.45076 -33.23268,3.60162 -19.61989,5.65121 -23.76275,2.17363 -6.75656,-5.67161 18.52346,-8.54517 63.386,-11.16073 81.33333,-4.74185 11.11742,3.97613 12.24607,3.80396 26.14285,-3.98786 15.20585,-8.5258 50.27161,-15.99545 54.62992,-11.63715 1.4206,1.42061 -4.514,5.73711 -13.61805,9.90507 -8.87472,4.06298 -22.5221,13.36083 -30.32749,20.66186 -7.80538,7.30103 -15.36319,13.07549 -16.79512,12.83219 -1.43196,-0.24342 -11.40483,-4.98983 -22.16191,-10.54783 z M 473.84222,426.58443 c -0.53253,-1.25592 -5.21349,-5.26424 -10.40212,-8.90737 l -9.43386,-6.62389 8.95774,-7.53744 c 11.25537,-9.47076 14.44892,-17.75304 12.19677,-31.63148 -2.41763,-14.89808 -20.93154,-33.04736 -41.25357,-40.44106 -8.60812,-3.13187 -16.62718,-7.65503 -17.82007,-10.05145 -1.19293,-2.39643 -4.51592,-10.03353 -7.38443,-16.97134 -3.10598,-7.51213 -11.52136,-18.23453 -20.806,-26.50978 -14.60584,-13.01799 -15.16657,-14.00152 -8.87802,-15.57268 3.69186,-0.92239 11.94104,-0.20719 18.33151,1.5893 6.39048,1.7965 21.74336,2.97889 34.1175,2.62753 15.93332,-0.45242 25.42698,0.75083 32.53426,4.12346 11.15118,5.29158 25.02061,3.76776 30.97168,-3.40283 13.83732,-16.67296 42.87074,-16.50151 60.68608,0.35837 5.98793,5.66679 10.22662,6.841 24.1614,6.69326 9.29471,-0.0985 18.37936,1.3007 20.18809,3.10943 2.44828,2.4483 1.74902,3.28861 -2.73666,3.28861 -10.30853,0 -30.96961,8.56255 -41.99434,17.40367 -9.90815,7.94569 -11.75883,8.36987 -30.5,6.99059 -17.21902,-1.26726 -21.53152,-0.54575 -31.48498,5.26767 -6.34321,3.70483 -14.42464,11.02675 -17.95869,16.27092 l -6.42553,9.53486 7.98286,18.01615 c 7.6101,17.17488 8.96119,18.50964 28.93463,28.58483 l 20.95175,10.56868 -15.94153,8.99686 c -8.76785,4.94827 -18.85464,12.937 -22.41506,17.75274 -6.23513,8.43347 -12.55769,11.24031 -14.57941,6.47239 z M 260.89514,607.4992 c -4.75504,-3.88553 -17.82647,-10.53976 -29.04762,-14.78716 -24.74656,-9.36704 -71.84487,-12.91596 -92.95836,-7.00454 -14.16789,3.96677 -14.94624,8.73186 -1.42629,8.73186 4.65316,0 17.97423,1.96452 29.60238,4.3656 29.70795,6.13436 86.54789,15.46085 95.2135,15.62297 l 7.2619,0.13594 -8.64551,-7.06455 z"
       style="fill:#aa581d" />
    <path
       inkscape:connector-curvature="0"
       id="path4350"
       d="m 518.39244,882.4169 c -18.08006,-4.861 -33.87923,-13.83221 -38.03501,-21.5974 -1.5774,-2.9474 -2.86802,-12.37751 -2.86802,-20.95574 0,-22.36274 11.07891,-43.52138 27.97204,-53.42141 11.61461,-6.80662 14.81257,-7.37183 32.39777,-5.72616 25.70074,2.40517 26.11702,2.40686 41.32717,0.16818 18.81408,-2.76902 36.91548,2.98035 49.73057,15.79543 12.11945,12.11942 15.85726,25.22896 12.87105,45.14227 -2.81616,18.77969 -9.91836,25.9399 -32.71537,32.98273 -40.81002,12.60768 -64.65451,14.60927 -90.6802,7.61201 z M 618.4493,822.99851 c 3.57036,-5.77696 -7.16486,-17.02951 -19.38624,-20.32037 -9.96894,-2.68435 -14.33087,-2.38078 -25.14809,1.75038 -12.40612,4.73792 -13.8237,4.73319 -27.23958,-0.0912 -11.88738,-4.27468 -15.54935,-4.51049 -22.88135,-1.47347 -4.80096,1.98863 -7.94818,4.42009 -6.99385,5.40326 1.8099,1.86463 82.30249,16.90098 93.41062,17.44952 3.50036,0.17283 7.20767,-1.05037 8.23849,-2.71825 z M 297.94782,796.91085 c -33.97084,-8.89941 -49.24107,-18.75974 -70.09589,-45.26253 -1.39187,-1.76882 -8.01934,-4.09371 -14.7277,-5.16641 -26.90911,-4.30294 -40.60482,-18.8594 -40.62396,-43.17708 l -0.0109,-13.79762 -20.02735,0 c -38.0782,0 -78.942877,-18.29982 -90.218067,-40.40102 -20.91961,-41.00583 15.65356,-90.43547 84.102567,-113.66691 l 21.78571,-7.39402 1.63897,-18.91528 c 3.11423,-35.94115 29.53437,-76.7091 59.68431,-92.09672 6.21267,-3.17075 13.76827,-8.49895 16.79022,-11.84044 5.38926,-5.95912 5.38928,-6.34045 8.7e-4,-19.91624 -3.79471,-9.56058 -5.48251,-21.03133 -5.45776,-37.09253 0.03,-19.48177 1.34392,-25.92538 8.10366,-39.7418 9.04395,-18.48515 23.41289,-32.53913 41.40595,-40.49831 9.77274,-4.32295 13.03147,-7.83403 17.05903,-18.38005 7.36255,-19.27856 27.97615,-40.58019 49.04742,-50.68452 23.52558,-11.28125 36.94471,-13.03178 61.04865,-7.96383 16.93305,3.56024 22.61372,3.59325 38.71257,0.22492 10.37712,-2.17117 25.62898,-7.12241 33.893,-11.00274 27.96998,-13.13318 70.64859,-17.98915 96.46079,-10.97529 17.62912,4.7903 30.40952,19.64956 34.50471,40.11729 l 3.38498,16.91796 15.8613,0.82521 c 20.02534,1.04185 37.19783,9.28204 50.86107,24.40563 15.47608,17.13018 22.10605,34.3375 23.82091,61.82443 1.71889,27.55202 -2.94883,47.29649 -18.39089,77.79347 -5.46139,10.78585 -9.92978,20.74621 -9.92978,22.13413 0,1.38793 5.76377,3.17316 12.80837,3.96719 18.50452,2.08573 37.7658,12.42369 54.13994,29.05815 27.5943,28.03299 39.37895,66.65845 30.68793,100.58291 -2.57614,10.05558 -4.68387,19.48444 -4.68387,20.95303 0,1.46859 5.74446,2.67014 12.76544,2.67014 27.44138,0 69.77113,18.88848 82.22437,36.69034 8.87512,12.68693 10.22354,22.58781 4.89127,35.91448 -9.28507,23.20565 -46.32982,40.06991 -94.07155,42.82511 -26.41489,1.52442 -28.07702,2.0236 -38.85874,11.67049 -22.07907,19.75517 -51.80382,27.62676 -74.80535,19.80966 -12.42767,-4.22358 -14.30409,-4.18913 -24.69047,0.453 -8.56803,3.82944 -19.18313,5.01423 -44.64543,4.98309 -28.23859,-0.0346 -35.59574,-1.03659 -47.57164,-6.47924 -17.87307,-8.12271 -21.56883,-8.04919 -32.3093,0.64262 -7.52853,6.09256 -8.21737,7.77041 -5.06225,12.33083 11.61757,16.79216 11.64618,27.86683 0.0996,38.62392 -9.98733,9.30465 -23.83224,12.01592 -70.31023,13.76912 -39.1536,1.4769 -44.28559,2.28913 -53.35611,8.44455 -5.51969,3.74575 -14.78268,8.12901 -20.58445,9.74054 -16.45626,4.57099 -52.01868,3.19309 -75.35215,-2.91963 z m 167.37351,-76.14549 c 1.44817,-7.59871 -11.84413,-12.82813 -21.46485,-8.44461 -8.83977,4.02766 -7.98876,9.61697 1.89591,12.45202 10.86904,3.11739 18.50926,1.5528 19.56894,-4.00741 z m -134.61248,0.83997 c 2.60293,-4.21162 -8.18803,-8.93659 -13.13786,-5.75256 -3.64524,2.34481 -3.62455,3.08024 0.15651,5.56235 5.54919,3.64281 10.79999,3.71976 12.98135,0.19027 z M 229.85846,694.59055 c -0.66568,-1.99703 -2.95318,-3.63095 -5.08333,-3.63095 -2.13016,0 -4.41766,1.63392 -5.08334,3.63095 -0.71998,2.15995 1.33942,3.63095 5.08334,3.63095 3.74391,0 5.80331,-1.471 5.08333,-3.63095 z m 81.47857,-14.37857 c 9.51771,-9.51772 -0.9669,-22.67437 -18.02401,-22.6175 -21.84109,0.0729 -30.15141,5.1622 -26.01798,15.93376 3.22352,8.40036 37.17321,13.55251 44.04199,6.68374 z m 121.23782,-16.12143 c -3.09921,-12.54831 -18.49084,-34.69965 -30.98835,-44.59789 -6.27202,-4.96752 -17.57575,-10.89062 -25.11942,-13.16243 -25.34346,-7.63229 -58.46563,4.94245 -68.45227,25.98771 -7.31487,15.41496 -6.36018,19.4247 4.62936,19.44358 5.19226,0.009 14.66905,1.46809 21.05952,3.24264 13.51648,3.75333 83.92334,16.31192 93.99349,16.76574 6.05576,0.27304 6.62169,-0.61811 4.87767,-7.67935 z m 385.40309,-53.69467 c -4.90255,-2.36189 -7.51419,-2.31065 -10.02143,0.19665 -2.58475,2.58474 -1.00833,3.34419 6.63049,3.19434 9.4114,-0.18475 9.61781,-0.39104 3.39094,-3.39093 z M 471.67989,555.88816 c 0,-1.59761 -3.84428,-2.90475 -8.54285,-2.90475 -4.69857,0 -9.35072,1.30714 -10.3381,2.90475 -1.06838,1.72869 2.39047,2.90477 8.54284,2.90477 5.68596,0 10.33811,-1.30715 10.33811,-2.90477 z m 143.9567,-10.16666 c 5.57319,-4.30666 5.57119,-4.40972 -0.17109,-8.89465 -5.95259,-4.64924 -20.40927,-3.81038 -25.71159,1.49195 -9.57305,9.57305 14.25477,16.38803 25.88259,7.4027 z m 84.59235,-55.5164 c 16.36026,-4.38773 5.82658,-21.4598 -13.24103,-21.4598 -13.21533,0 -20.60423,6.49906 -15.8885,13.97505 4.41138,6.9935 17.97066,10.47753 29.12953,7.48475 z M 313.46366,458.72687 c 13.49131,-5.63704 13.24101,-14.19874 -0.62853,-21.49909 -15.38192,-8.09642 -41.58382,0.8229 -41.58382,14.15544 0,11.33889 23.0522,15.34926 42.21235,7.34365 z m 271.69288,-39.46472 c 14.02936,-7.50828 1.14683,-23.13589 -19.07191,-23.13589 -19.88817,0 -32.89772,15.26437 -19.60714,23.00542 6.65917,3.87862 31.5189,3.96247 38.67905,0.13048 z M 460.2518,369.8812 c 13.92255,-7.45113 0.11474,-23.95112 -27.55094,-32.92259 -19.94139,-6.46663 -20.11179,-6.61115 -24.81988,-21.05332 -6.75076,-20.70798 -15.84917,-32.06398 -33.81175,-42.20143 -17.98425,-10.14968 -20.48635,-16.98861 -6.23458,-17.04065 11.95966,-0.0437 34.67487,-6.25514 51.55952,-14.09893 17.82388,-8.28009 31.55501,-7.89066 45.06599,1.27813 l 11.01953,7.47807 19.81861,-10.19477 c 38.20654,-19.65359 62.04169,-16.44202 71.29316,9.6061 4.81458,13.55582 5.06401,13.74804 22.5142,17.35056 23.9018,4.93445 33.62183,8.88301 33.62183,13.6582 0,2.96916 -4.69459,4.02123 -18.15476,4.06853 -20.02711,0.0704 -35.62903,5.79144 -50.86247,18.65075 -9.09916,7.68105 -10.03223,7.85881 -23.85119,4.54369 -18.46153,-4.42886 -31.39757,-0.4658 -43.51019,13.32971 -10.25262,11.6771 -10.66995,14.62763 -3.40523,24.0754 4.71141,6.12717 11.81744,8.04941 61.66161,16.67986 34.8845,6.0402 60.20781,9.06058 66.50318,7.93201 34.91158,-6.25862 67.71793,-41.14837 71.51927,-76.06117 1.88543,-17.31618 -5.37433,-31.36071 -20.98832,-40.60344 -10.09498,-5.97574 -13.84378,-6.52729 -34.72573,-5.10907 -15.88138,1.07861 -24.49615,0.50277 -26.7896,-1.79069 -2.2898,-2.28978 -2.81573,-10.06225 -1.63007,-24.08884 l 1.7505,-20.7083 -9.68035,-8.14548 c -9.4559,-7.95663 -10.35699,-8.11844 -38.86563,-6.9793 -25.9152,1.03552 -31.78903,2.33958 -52.42339,11.63861 -29.77732,13.41938 -59.79077,18.94948 -77.98289,14.36865 -30.23194,-7.61249 -53.08795,-2.43471 -72.52144,16.42898 -14.15291,13.73789 -21.11429,25.32788 -23.60091,39.29295 -1.66637,9.35853 -3.67152,11.7871 -12.6987,15.3802 -19.20107,7.64264 -24.44584,11.06174 -31.8411,20.75743 -4.00627,5.2525 -6.77507,10.05281 -6.15288,10.66736 2.43942,2.40947 142.41165,24.96337 144.99956,23.36395 1.51559,-0.93669 2.06369,0.1001 1.21796,2.30401 -3.19532,8.32693 4.37594,19.75666 16.83263,25.41083 14.4891,6.57669 15.35065,6.68034 22.72445,2.734 z"
       style="fill:#ca732a" />
    <path
       inkscape:connector-curvature="0"
       id="path4346"
       d="m 526.53146,880.9693 c -8.83126,-1.9026 -22.12414,-7.015 -29.5398,-11.3609 -16.09711,-9.4335 -18.85957,-17.6913 -13.9039,-41.5626 6.55456,-31.5732 31.93152,-49.1036 61.30453,-42.3492 7.38269,1.6976 22.52849,2.3232 33.6573,1.3902 24.18656,-2.0277 37.3494,1.6631 48.88938,13.7082 6.9678,7.2728 8.51484,11.6631 9.44445,26.8019 1.53253,24.9578 -2.17511,32.9904 -18.4468,39.9653 -11.62506,4.9831 -66.15215,17.7808 -72.89988,17.1099 -1.34667,-0.1339 -9.67405,-1.8001 -18.50528,-3.7028 z M 602.89085,839.68 c 16.36026,-5.5745 20.81024,-10.4608 18.37239,-20.174 -3.89163,-15.5055 -30.77491,-23.3958 -52.70008,-15.4675 -7.59426,2.7461 -11.52176,2.4699 -21.46813,-1.5099 -20.98008,-8.3945 -43.72105,2.2212 -43.72105,20.4095 0,8.7826 3.02795,10.1548 34.82524,15.7821 35.84837,6.3443 48.34482,6.5297 64.69163,0.9598 z M 319.99499,797.6492 c -21.96146,-3.3376 -50.92719,-13.2069 -64.22715,-21.88355 -5.97743,-3.89959 -14.25704,-12.21127 -18.39912,-18.47036 -6.11242,-9.23651 -9.81054,-11.75883 -19.63195,-13.39012 -27.89773,-4.6337 -39.53606,-15.86822 -39.63152,-38.25647 -0.0794,-18.61752 -3.69996,-21.16171 -30.11483,-21.16171 -21.9426,0 -50.119058,-8.00927 -65.378578,-18.58411 C 59.198733,649.67757 54.339922,625.0006 69.187153,597.72134 83.370122,571.66255 108.8872,553.28816 148.74789,540.4311 l 23.48324,-7.57452 0,-10.71738 c 0,-15.57138 7.88572,-43.41297 16.42304,-57.98372 10.21792,-17.43908 26.92207,-33.4708 46.22624,-44.3654 20.25933,-11.43366 24.02134,-18.45903 17.07633,-31.8892 -6.54243,-12.65168 -8.79517,-44.48874 -4.4263,-62.55523 5.06559,-20.94761 19.46551,-38.77597 40.27972,-49.86983 15.36987,-8.19206 18.61263,-11.45555 24.78984,-24.94834 13.62449,-29.75981 41.45868,-52.00023 69.96979,-55.90811 7.38779,-1.01261 23.17209,-0.17507 35.07621,1.8612 26.20432,4.48239 47.63269,1.13383 74.71966,-11.67628 9.83067,-4.64918 23.51849,-9.2995 30.41732,-10.33405 6.89887,-1.03454 12.54338,-3.03971 12.54338,-4.45593 0,-1.41622 8.82321,-2.46866 19.60714,-2.33876 15.43242,0.18589 22.65714,1.88671 33.93183,7.98809 18.56157,10.04474 25.83451,20.30118 27.72505,39.09828 l 1.52169,15.12982 19.1693,1.89618 c 40.57607,4.01367 64.21037,27.39438 72.19356,71.41894 5.10212,28.13663 -1.94367,60.36193 -20.31492,92.91397 -11.69532,20.72299 -11.23286,22.98259 5.20205,25.41668 33.19399,4.91621 63.1431,28.45075 78.27982,61.51365 9.83514,21.48283 12.14315,50.43401 5.61235,70.40077 -2.60558,7.96611 -4.73741,15.74378 -4.73741,17.28374 0,1.53996 8.16964,3.66985 18.15476,4.73305 37.87717,4.03312 72.31771,20.46538 81.9553,39.10245 7.93133,15.33749 5.8501,25.72983 -7.88387,39.36714 -17.64425,17.52007 -39.34634,24.96018 -79.49302,27.25253 -31.70318,1.81022 -32.45104,2.01556 -41.10703,11.28544 -18.80938,20.14345 -55.32287,29.53292 -77.64994,19.96777 -7.445,-3.18952 -10.92499,-2.95888 -23.89173,1.58338 -21.45428,7.51549 -63.51996,7.1567 -85.03684,-0.72532 -8.7869,-3.21879 -18.09431,-6.55215 -20.68315,-7.40743 -5.97786,-1.97495 -28.44099,13.37498 -28.58756,19.53496 -0.0607,2.54823 2.56746,7.05642 5.84019,10.0182 8.39102,7.59378 6.70367,23.58937 -3.27047,31.00294 -11.30577,8.40333 -26.51937,10.84312 -68.08901,10.91929 -34.83042,0.0639 -38.61181,0.60814 -47.92857,6.89913 -18.9201,12.7755 -47.10913,17.748 -75.85089,13.38 z m 161.77415,-70.19692 c -0.16731,-11.29868 -0.95139,-12.49425 -10.34754,-15.77509 -5.59167,-1.95247 -13.59336,-4.27674 -17.7815,-5.16504 -6.71442,-1.42415 -7.77782,-3.31135 -8.99317,-15.95978 -2.81603,-29.30664 -30.16729,-69.07844 -56.1584,-81.66053 -24.36796,-11.79633 -59.47666,-5.87262 -76.80727,12.95927 -3.98219,4.32714 -9.86433,13.32792 -13.07143,20.0017 -5.42844,11.2963 -6.83395,12.26312 -20.35489,14.00174 -20.25262,2.60421 -28.85191,6.54016 -35.89299,16.42843 -4.18931,5.88334 -9.48136,9.10213 -17.0438,10.36655 -16.65718,2.78505 -20.00727,5.79267 -16.0722,14.4292 4.40244,9.66231 18.74647,12.84378 28.65029,6.35454 6.82947,-4.47484 9.41459,-4.4638 37.59445,0.16064 28.76026,4.71968 30.1807,5.28457 28.64761,11.39288 -2.60204,10.36733 5.91235,16.41582 21.67128,15.395 11.5773,-0.74995 13.579,-1.81483 14.40736,-7.6645 0.92441,-6.5281 1.64456,-6.71436 18.42949,-4.76625 l 17.46749,2.02732 -4.73853,-7.23196 c -2.60622,-3.97755 -10.44239,-10.25782 -17.41376,-13.9561 l -12.67519,-6.72418 7.45696,-3.8687 c 6.77518,-3.51503 8.17394,-3.18179 15.29903,3.64446 5.89475,5.64752 11.62913,7.79516 23.0928,8.64864 18.87049,1.40491 21.23198,3.41707 9.29721,7.92195 -9.93884,3.7515 -10.44988,4.54035 -6.73571,10.39765 2.51957,3.97337 41.31949,13.59228 71.5582,17.74008 9.58571,1.31484 18.16353,2.55637 19.06183,2.75897 0.8983,0.20247 1.55187,-5.133 1.45238,-11.85686 z M 831.02431,614.61143 c 1.67401,-14.37227 -24.77457,-19.69635 -33.34385,-6.71206 -6.39196,9.68523 1.77519,16.12419 19.03386,15.0062 11.98551,-0.77638 13.53924,-1.67695 14.30999,-8.29414 z M 478.07045,562.73555 c 9.21321,-8.85305 -1.37999,-20.5819 -18.58902,-20.5819 -8.0068,0 -20.42004,12.98591 -18.1265,18.96273 4.09749,10.67787 26.27064,11.65573 36.71552,1.61917 z m 137.67394,-6.18889 c 4.49748,-1.66954 9.73325,-5.08075 11.63509,-7.58041 2.90028,-3.81195 6.11757,-4.08665 19.95034,-1.70344 11.23518,1.93567 19.08931,1.8612 24.63914,-0.23354 6.77635,-2.55779 11.65368,-1.6633 28.99438,5.31754 19.21868,7.73684 21.44399,8.05784 28.4804,4.10841 19.80612,-11.1169 27.40928,-42.69788 15.12855,-62.83907 -15.69942,-25.7481 -87.74396,-40.31901 -127.12045,-25.70993 -25.3057,9.38866 -23.48892,-1.37444 2.45078,-14.51908 7.57597,-3.83904 14.64029,-8.38093 15.69846,-10.0931 1.05818,-1.71216 -1.63973,-10.39692 -5.99534,-19.29946 -6.02874,-12.32231 -11.29307,-18.28369 -22.05173,-24.97164 -7.77282,-4.83195 -14.13242,-9.69014 -14.13242,-10.79607 0,-1.10593 5.55536,-3.67205 12.34524,-5.70249 33.14873,-9.91275 59.465,-30.89513 73.62185,-58.69989 9.58737,-18.83007 10.11738,-34.42745 1.72601,-50.79479 -10.72412,-20.91743 -37.88791,-31.56219 -62.91078,-24.65305 -16.83155,4.64742 -19.80068,0.90407 -17.35998,-21.88686 2.32363,-21.69778 -2.05286,-30.96049 -17.72164,-37.50734 -20.25629,-8.46361 -61.09161,-3.3342 -90.68997,11.39176 -19.9224,9.91192 -46.93105,14.84691 -65.33161,11.93733 -26.74553,-4.22913 -49.11778,-3.13774 -61.6066,3.00536 -20.86615,10.26384 -39.12856,33.11155 -43.57118,54.511 -1.32932,6.40315 -5.25305,9.6141 -19.8188,16.21853 -18.79418,8.52168 -32.69591,21.81293 -35.81561,34.2428 -2.71368,10.81219 6.51311,31.38857 19.22496,42.87296 19.73821,17.83229 51.99648,23.52733 84.24145,14.87241 8.78691,-2.3585 16.30298,-4.3037 16.70239,-4.32266 0.3994,-0.0189 0.72619,1.81514 0.72619,4.07579 0,2.26066 -6.0101,9.40058 -13.35578,15.86651 l -13.35577,11.75623 10.12135,12.45492 c 14.36814,17.68085 22.37628,31.7464 22.38886,39.32397 0.0145,9.31636 -2.92519,8.23111 -17.25205,-6.36692 -6.96463,-7.09645 -19.29491,-15.75561 -27.40062,-19.24259 -12.71731,-5.47084 -18.33149,-6.1329 -40.95371,-4.82951 -17.82908,1.02722 -31.32716,3.62497 -42.19228,8.12003 -18.18376,7.5229 -55.19047,30.87869 -55.19047,34.83195 0,3.25732 -0.41988,3.16875 75.5238,15.92992 34.34881,5.77179 84.02024,14.20946 110.38095,18.75041 134.74574,23.21155 121.24696,21.54852 133.0606,16.39274 15.67854,-6.84255 34.43337,-10.42258 55.02273,-10.5031 23.36631,-0.0915 24.82467,6.19333 3.49413,15.05791 -10.2134,4.2445 -13.73798,7.01532 -11.61904,9.13426 1.67285,1.67285 3.04157,6.74369 3.04157,11.2685 0,5.81675 1.91473,8.99657 6.53572,10.85399 8.95703,3.60028 20.54541,3.58489 30.31089,-0.0404 z M 472.598,428.46703 c -3.04347,-3.41573 -9.78176,-8.00828 -14.97402,-10.20565 -11.78023,-4.9854 -11.89657,-8.30749 -0.49735,-14.20225 5.09678,-2.63565 10.7545,-8.95994 13.15479,-14.70462 8.83986,-21.15682 -5.99159,-44.09138 -35.59016,-55.03465 -18.6637,-6.90041 -19.82776,-7.96214 -24.00109,-21.89147 -3.93072,-13.11952 -22.93495,-35.56589 -35.70123,-42.16759 -12.08181,-6.24774 -10.01487,-8.96736 8.56361,-11.26776 9.18631,-1.13745 23.36422,-5.20949 31.50647,-9.04898 20.55729,-9.69382 38.52653,-9.3929 50.69832,0.849 l 9.30532,7.8299 9.07232,-5.43509 c 32.68511,-19.58114 55.64002,-24.02433 69.12311,-13.37958 4.27078,3.37174 8.66996,10.36272 9.77589,15.53552 2.86932,13.42041 6.4472,16.66481 18.39803,16.68318 13.35357,0.0206 32.32291,5.2053 32.32291,8.83462 0,1.52253 -6.20892,2.781 -13.79762,2.79661 -14.08844,0.029 -35.73891,8.70392 -50.10714,20.07702 -6.04983,4.78871 -9.35681,5.34625 -19.81314,3.34039 -22.16148,-4.25128 -45.76792,5.90462 -55.35253,23.81359 -3.55209,6.63718 -3.12207,8.8746 4.38761,22.82847 8.84587,16.43666 21.19834,25.59595 43.59144,32.32285 6.61522,1.98721 12.17057,4.92025 12.34524,6.51787 0.17457,1.59762 -5.20226,4.74471 -11.94874,6.99353 -7.48415,2.49473 -18.31627,10.13875 -27.78466,19.60715 -8.53512,8.5351 -15.8841,15.51837 -16.33112,15.51837 -0.44701,0 -3.30283,-2.79469 -6.34626,-6.21043 z"
       style="fill:#b96423" />
    <path
       inkscape:connector-curvature="0"
       id="path4342"
       d="m 526.53146,880.9693 c -8.83126,-1.9027 -22.12414,-7.0151 -29.5398,-11.3609 -16.09711,-9.4335 -18.85957,-17.6914 -13.9039,-41.5627 6.55456,-31.57306 31.93152,-49.10346 61.30453,-42.34916 7.38269,1.6977 22.52849,2.3233 33.6573,1.3903 24.18656,-2.0277 37.3494,1.663 48.88938,13.70816 6.9678,7.2728 8.51484,11.6631 9.44445,26.8019 1.53253,24.9577 -2.17511,32.9904 -18.4468,39.9653 -11.62506,4.983 -66.15215,17.7808 -72.89988,17.1099 -1.34667,-0.1339 -9.67405,-1.8002 -18.50528,-3.7028 z m 77.0568,-26.1137 c 13.68741,-3.1659 14.75651,-4.0946 18.56465,-16.1263 5.10396,-16.1257 2.09602,-25.4757 -11.04446,-34.331 -10.8017,-7.27926 -24.15646,-8.40156 -40.7642,-3.4258 -8.3708,2.5079 -13.40034,2.2801 -23.26189,-1.0534 -15.89747,-5.37386 -31.1425,-2.32686 -40.05669,8.006 -15.31466,17.752 -11.25369,33.0518 11.59653,43.6901 12.98801,6.0468 19.34763,7.0635 42.84701,6.8502 15.17738,-0.1377 34.13095,-1.7621 42.11905,-3.6098 z M 319.99499,797.64924 c -21.96146,-3.3376 -50.92719,-13.2069 -64.22715,-21.8836 -5.97743,-3.8996 -14.25704,-12.2113 -18.39912,-18.4704 -6.11242,-9.2365 -9.81054,-11.7588 -19.63195,-13.3901 -27.89773,-4.6337 -39.53606,-15.8682 -39.63152,-38.2564 -0.0794,-18.61757 -3.69996,-21.16176 -30.11483,-21.16176 -21.9426,0 -50.119057,-8.00927 -65.378577,-18.58411 -23.41306,-16.22531 -28.27196,-40.90228 -13.42469,-68.18154 14.18297,-26.05879 39.700047,-44.43318 79.560737,-57.29023 l 23.48324,-7.57452 0,-10.71738 c 0,-15.57138 7.88572,-43.41297 16.42304,-57.98373 10.21792,-17.43908 26.92207,-33.4708 46.22624,-44.36539 20.25933,-11.43366 24.02134,-18.45904 17.07633,-31.88921 -6.54243,-12.65167 -8.79517,-44.48874 -4.4263,-62.55523 5.06559,-20.94761 19.46551,-38.77597 40.27972,-49.86983 15.36987,-8.19206 18.61263,-11.45555 24.78984,-24.94834 13.62449,-29.75981 41.45868,-52.00023 69.96979,-55.90811 7.38779,-1.01261 23.17209,-0.17507 35.07621,1.8612 26.20432,4.48239 47.63269,1.13383 74.71966,-11.67628 9.83067,-4.64918 23.51849,-9.2995 30.41732,-10.33405 6.89887,-1.03454 12.54338,-3.03971 12.54338,-4.45593 0,-1.41622 8.82321,-2.46866 19.60714,-2.33876 15.43242,0.18589 22.65714,1.88671 33.93183,7.98809 18.56157,10.04474 25.83451,20.30118 27.72505,39.09828 l 1.52169,15.12982 19.1693,1.89618 c 40.57607,4.01367 64.21037,27.39438 72.19356,71.41894 5.10212,28.13663 -1.94367,60.36193 -20.31492,92.91398 -11.69532,20.72299 -11.23286,22.98259 5.20205,25.41668 33.19399,4.91621 63.1431,28.45074 78.27982,61.51364 9.83514,21.48284 12.14315,50.43402 5.61235,70.40077 -2.60558,7.96611 -4.73741,15.74378 -4.73741,17.28374 0,1.53996 8.16964,3.66985 18.15476,4.73305 37.87717,4.03312 72.31771,20.46538 81.9553,39.10245 7.93133,15.33749 5.8501,25.72983 -7.88387,39.36714 -17.64425,17.52007 -39.34634,24.96018 -79.49302,27.25253 -31.70318,1.81022 -32.45104,2.01556 -41.10703,11.28544 -18.80938,20.14347 -55.32287,29.53297 -77.64994,19.96777 -7.445,-3.1895 -10.92499,-2.9589 -23.89173,1.5834 -21.45428,7.5155 -63.51996,7.1567 -85.03684,-0.7253 -8.7869,-3.2188 -18.09431,-6.5522 -20.68315,-7.4075 -5.97786,-1.9749 -28.44099,13.375 -28.58756,19.535 -0.0607,2.5482 2.56746,7.0564 5.84019,10.0182 8.39102,7.5938 6.70367,23.5894 -3.27047,31.0029 -11.30577,8.4034 -26.51937,10.8432 -68.08901,10.9193 -34.83042,0.064 -38.61181,0.6082 -47.92857,6.8992 -18.9201,12.7755 -47.10913,17.74796 -75.85089,13.38 z m 35.89334,-27.1198 c 9.14837,-2.1529 21.36475,-7.5231 27.14752,-11.9339 l 10.51414,-8.0195 30.94771,4.7341 c 35.99098,5.5055 59.7578,6.0002 72.6333,1.5117 11.82471,-4.1221 11.55709,-9.1647 -1.01884,-19.1991 -7.72263,-6.1619 -10.16661,-10.2958 -10.16667,-17.1968 -1.1e-4,-12.2301 -3.00233,-14.4367 -26.86913,-19.74814 -6.76885,-1.50635 -7.9881,-3.26143 -7.9881,-11.49876 0,-14.14381 -18.68116,-49.23943 -34.77813,-65.3364 -24.75929,-24.75929 -52.50232,-32.34142 -81.23904,-22.20252 -18.47832,6.51953 -28.62311,15.0661 -38.3576,32.31466 -7.77174,13.77075 -9.95965,15.67703 -18.00964,15.69127 -15.81516,0.029 -29.82479,5.49955 -40.95259,15.9944 -7.31357,6.89759 -13.50354,10.13224 -19.38946,10.13224 -9.09531,0 -21.14746,10.25893 -24.51428,20.86683 -3.10549,9.78462 1.08337,18.87202 10.49626,22.77102 8.79301,3.6422 46.97096,4.5716 52.30755,1.2734 1.53383,-0.9479 2.72266,3.8175 2.72266,10.9139 0,21.5277 11.37921,31.3671 44.642,38.6014 23.10651,5.0254 31.68915,5.08 51.87234,0.3302 z m 134.96702,-82.98186 c 6.69452,-3.03934 18.14079,-11.02804 25.43616,-17.75268 l 13.26433,-12.22664 18.13527,8.37603 c 16.28779,7.52275 21.09435,8.35836 47.18286,8.20273 22.73252,-0.13566 32.49668,-1.54664 44.91235,-6.49023 l 15.86474,-6.31693 7.64611,7.32546 c 8.61692,8.25554 23.59553,11.65124 38.80669,8.7976 9.98344,-1.87291 28.55538,-16.53022 31.15959,-24.59172 1.09808,-3.39921 5.20655,-3.43915 26.58562,-0.25852 40.83666,6.07548 91.99355,-4.47357 101.99807,-21.033 7.97848,-13.20589 -28.30958,-37.04623 -56.37794,-37.03886 -13.05333,0.003 -18.36762,1.63573 -29.04762,8.9221 -13.99714,9.54943 -10.85257,9.33236 -55.6988,3.84477 -16.33912,-1.99935 -16.45879,-2.08423 -13.56658,-9.62133 1.60491,-4.1823 2.14987,-12.47543 1.21108,-18.42914 -1.67874,-10.64628 -1.56935,-10.79741 6.62853,-9.15785 14.28242,2.85649 31.95821,-9.6994 42.20505,-29.9801 14.75363,-29.20061 -6.14923,-76.2995 -42.54468,-95.8628 -6.47901,-3.4826 -15.72162,-5.00758 -29.73459,-4.90605 -11.47041,0.0831 -21.26356,-1.21976 -22.46744,-2.98904 -5.62977,-8.27381 -1.97085,-25.11623 9.21676,-42.42564 6.29188,-9.73477 14.29813,-26.2889 17.79166,-36.78697 21.6252,-64.98376 -14.21024,-124.01475 -67.77826,-111.64977 -19.92411,4.59904 -23.06967,1.48672 -18.83052,-18.63148 3.62296,-17.19378 -0.0796,-27.61509 -13.28136,-37.38127 -11.89764,-8.80151 -51.04831,-8.39552 -78.17881,0.81071 -10.76656,3.65343 -20.26891,7.76443 -21.11631,9.13554 -3.53978,5.72748 -45.49993,12.34785 -63.51053,10.02054 -34.64904,-4.47732 -48.4688,-3.19676 -65.51179,6.07042 -18.86959,10.26039 -35.92696,30.7545 -40.40768,48.54899 -2.94011,11.67624 -4.53511,13.4004 -16.69123,18.04286 -25.86866,9.8794 -41.87733,29.33545 -41.87733,50.89547 0,21.74288 11.00763,35.32746 39.22284,48.40511 14.42215,6.68462 21.45263,8.0882 40.85284,8.15594 23.20356,0.081 23.36695,0.13361 16.70238,5.37598 -9.30726,7.32108 -8.43807,13.69681 3.43622,25.20584 14.16356,13.72786 12.69523,15.903 -4.76323,7.05612 -29.87344,-15.13801 -70.67336,-12.28822 -110.62748,7.72713 -26.46932,13.26001 -42.55661,27.44127 -50.51299,44.52818 -13.31542,28.59584 -8.17669,42.88045 22.57612,62.75695 26.6866,17.24838 57.09149,24.36284 103.38711,24.19158 21.16845,-0.0781 38.48809,0.49601 38.48809,1.27623 0,0.78022 -2.17311,3.00759 -4.82911,4.94972 -8.15439,5.96263 -2.40351,11.84512 15.42821,15.78122 38.65421,8.53242 65.73438,28.86935 82.12917,61.67823 5.11317,10.23235 8.93839,22.45399 8.93839,28.55829 0,5.86901 0.87143,11.54239 1.93652,12.60745 3.41792,3.41795 13.71068,1.9583 26.21152,-3.71717 z M 513.54064,547.6944 c -4.79285,-3.10949 -15.90357,-7.79156 -24.69047,-10.4046 -22.41579,-6.66599 -12.61463,-8.48022 11.71821,-2.1691 18.62345,4.8303 20.42057,4.8599 25.32955,0.41732 7.10096,-6.42629 25.12201,-13.75762 33.29941,-13.54688 6.36381,0.16412 6.40291,0.30925 0.97725,3.63096 -3.10847,1.90305 -11.74047,9.01548 -19.18221,15.80536 -7.44171,6.78988 -14.70198,12.2497 -16.13391,12.1329 -1.43196,-0.11677 -6.52497,-2.75647 -11.31783,-5.86596 z m -51.4381,-200.59938 c -5.92429,-5.83343 -17.035,-12.92102 -24.69047,-15.75019 -18.45814,-6.82142 -19.5616,-7.83411 -24.25177,-22.25676 -2.48889,-7.65344 -9.88677,-18.28668 -19.35963,-27.82625 -8.43229,-8.49169 -15.33145,-16.00777 -15.33145,-16.70238 0,-3.53662 9.07726,-0.31144 21.75882,7.73097 13.8431,8.77903 14.41424,8.88313 23.90534,4.35715 12.37449,-5.90099 30.96616,-5.94897 39.88831,-0.10295 9.09303,5.95798 24.99916,3.02335 35.28597,-6.51015 16.69994,-15.47697 34.55112,-15.26334 53.58774,0.64131 10.44038,8.72269 12.38724,9.33011 21.68018,6.7642 15.99107,-4.41534 18.41239,0.57625 3.09918,6.38904 -7.49928,2.84667 -18.25303,8.69807 -23.89724,13.00312 -8.80146,6.71321 -12.18876,7.60091 -23.79715,6.23645 -20.52769,-2.41285 -36.48584,2.7432 -49.84864,16.10601 -11.93146,11.93146 -13.91884,18.62745 -8.52176,28.712 5.54964,10.36956 1.48375,10.03104 -9.50743,-0.79157 z M 127.37833,656.98411 c 3.74869,-2.83536 12.86056,-4.2957 27.1863,-4.35714 19.2405,-0.0825 52.97532,-4.11265 63.8119,-7.62337 3.29196,-1.06649 3.15951,-2.26226 -0.72619,-6.55591 -2.6139,-2.88832 -4.74902,-5.80214 -4.74471,-6.47515 0.004,-0.673 10.13466,-1.32756 22.5119,-1.45458 24.23816,-0.24871 45.74217,-7.66152 45.74217,-15.76813 0,-7.07184 -25.04274,-21.69433 -52.6506,-30.74275 -56.37291,-18.47611 -131.494057,-7.02087 -146.470467,22.33533 -3.11555,6.107 -5.66463,14.48846 -5.66463,18.62548 0,24.09776 33.593627,45.18502 51.004327,32.01622 z"
       style="fill:#964c19" />
    <circle
       style="opacity:0.288;fill:#f9f9f9;fill-opacity:1;stroke:none;stroke-width:6;stroke-miterlimit:4;stroke-dasharray:none;stroke-opacity:1"
       id="path4361"
       cx="469.48819"
       cy="526.18109"
       r="458.57144" />
    <path
       style="opacity:1;fill:#f9f9f9;fill-opacity:1;stroke:none;stroke-width:6;stroke-miterlimit:4;stroke-dasharray:none;stroke-opacity:1;filter:url(#filter4326)"
       d="M 471.42773 92.361328 A 457.14285 457.14285 0 0 0 14.285156 549.50586 A 457.14285 457.14285 0 0 0 471.42773 1006.6484 A 457.14285 457.14285 0 0 0 928.57227 549.50586 A 457.14285 457.14285 0 0 0 471.42773 92.361328 z M 556.39453 166.2207 C 573.89341 166.09328 589.42642 169.02884 599.92969 175.19727 C 610.91254 181.64734 618.95797 195.31274 621.13867 211.22266 L 622.93359 224.3125 L 638.77734 226.17383 C 660.56093 228.73406 673.84245 234.83256 688.15625 248.8457 C 704.16648 264.51965 712.81903 285.04669 714.56836 311.50195 C 716.37745 338.8602 711.24436 362.3174 697.43359 389.80859 C 691.34547 401.92738 686.93693 412.77002 687.63672 413.90234 C 688.33653 415.03466 694.14851 416.66276 700.55078 417.52148 C 740.42546 422.8698 776.71185 461.91382 785.44336 508.86523 C 788.59401 525.80697 787.2958 539.74448 780.29492 564.16211 C 778.52473 570.33621 779.24822 570.69727 793.375 570.69727 C 801.59984 570.69727 816.23346 573.36065 825.89453 576.61523 C 918.70501 607.88081 892.56643 680.28148 786.36133 686.11523 C 758.26898 687.65833 756.94192 688.04166 746.04883 697.79297 C 723.74038 717.76318 692.24028 725.97404 669.46875 717.75391 C 658.24176 713.70116 656.17977 713.73908 646.23047 718.17773 C 628.86673 725.92418 573.4637 724.96105 552.52734 716.54883 C 533.02274 708.71187 532.71964 708.71713 522.5293 717.05469 L 514.31836 723.77344 L 520.33984 733.65234 C 531.66446 752.22824 527.16351 765.62993 506.5293 774.76953 C 495.43976 779.68153 485.0698 781.02361 449.4082 782.16211 C 407.27849 783.50711 405.30893 783.85067 389.875 792.54297 C 375.38523 800.70347 371.23261 801.60221 344.85156 802.28711 C 323.63155 802.83791 310.69452 801.60737 296.9082 797.73047 C 268.46082 789.73077 249.41726 778.76582 235.68359 762.47852 C 226.80883 751.95352 221.27963 747.87032 215.8457 747.82422 C 204.19897 747.72522 184.64906 737.63281 178.79297 728.69531 C 175.88816 724.26202 172.84562 714.02157 172.03125 705.93945 L 170.55078 691.24414 L 145.86133 689.43359 C 118.85249 687.45271 103.94451 683.10157 83.861328 671.33203 C 65.924798 660.82054 57.955233 648.77963 56.382812 629.81836 C 53.221393 591.6958 93.010168 550.89318 149.30664 534.52734 L 165.51953 529.81445 L 168.77539 507.92969 C 174.69877 468.10369 193.86393 438.9278 228.45117 417.08398 C 238.68424 410.62121 247.85158 404.04643 248.82422 402.47266 C 249.79686 400.8989 247.80371 391.37466 244.39453 381.30859 C 228.93149 335.65185 247.79714 288.31785 289.54102 268.03711 C 299.69311 263.10484 303.27566 259.26638 307.12109 249.19727 C 314.01968 231.13355 337.65781 206.50451 357.33984 196.875 C 372.01522 189.695 376.43671 188.9075 397.10547 189.7832 C 456.57582 192.30287 462.56787 191.74576 485.67188 181.54102 C 508.14976 171.61283 533.89597 166.38453 556.39453 166.2207 z M 569.38477 780.63672 C 598.6947 780.47555 603.10274 781.50581 615.13281 787.23828 C 639.26621 798.73748 648.04658 822.47723 639.51953 853.18164 C 635.9761 865.94084 629.50772 869.94818 598.63086 878.52148 C 570.61307 886.30098 534.81964 888.46236 517.09766 883.44336 C 498.59616 878.20356 480.43038 865.71338 478.16211 856.67578 C 475.26583 845.13618 478.33941 820.17145 484.15625 807.99805 C 487.06209 801.91675 494.05625 793.42049 499.69727 789.11719 C 509.735 781.45989 510.91824 781.28068 555.20508 780.76758 C 560.50341 780.70618 565.19763 780.65974 569.38477 780.63672 z "
       id="path4136" />
  </g>
</svg>
